<?xml version="1.0" encoding="UTF-8"?>
<svg xmlns="http://www.w3.org/2000/svg" version="1.1" xmlns:inkscape="http://www.inkscape.org/namespaces/inkscape" xmlns:sodipodi="http://sodipodi.sourceforge.net/DTD/sodipodi-0.dtd" xmlns:svg="http://www.w3.org/2000/svg" viewBox="0 0 143.1 58.3">
  <defs>
    <style>
      .cls-1 {
        fill: none;
        stroke: #b0b7bb;
        stroke-miterlimit: 10;
        stroke-width: .8px;
      }

      .cls-2 {
        fill: #b0b7bb;
      }

      .cls-2, .cls-3, .cls-4, .cls-5 {
        stroke-width: 0px;
      }

      .cls-3 {
        fill: #b4121b;
      }

      .cls-4 {
        fill: #231f20;
      }

      .cls-5 {
        fill: #fff;
      }
    </style>
  </defs>
  <g id="svg67" inkscape:version="1.1.1 (c3084ef, 2021-09-22)" sodipodi:docname="29.svg">
    <sodipodi:namedview id="namedview69" bordercolor="#666666" borderopacity="1.0" inkscape:current-layer="svg67" inkscape:cx="57.391304" inkscape:cy="71.73913" inkscape:pagecheckerboard="0" inkscape:pageopacity="0.0" inkscape:pageshadow="2" inkscape:window-height="969" inkscape:window-maximized="0" inkscape:window-width="1312" inkscape:window-x="1944" inkscape:window-y="35" inkscape:zoom="1.15" pagecolor="#ffffff" showgrid="false"/>
    <path id="path13" class="cls-2" d="M142.1,15.1v3.3c-.4,11.5-7.2,21.8-17.6,26.6-14.6-7.2-17.6-20.6-17.6-26.6v-3.3h35.2Z"/>
    <path id="path15" class="cls-3" d="M124.5.4s11.5-.2,17.6,2.2v12.5h-35.2V2.7c6.1-2.4,17.6-2.2,17.6-2.3"/>
    <path id="path17" class="cls-5" d="M110.7,4.1h0c0,0,0,0,0,0,0,0,.2,0,.3,0s.3,0,.4.2h-.6c0,0-.1,0-.1,0M111,5.1h-.2c0,0-.3.1-.4.2,0,.1,0,.1,0,.2h0c0-.1.2-.1.3-.1h.2c0,0,0-.2,0-.3h0M111.1,4.5h0c0,.1,0,.2,0,.2l.4.3c0-.1,0-.3.2-.4l-.2-.5h-.2c0,.2,0,.4-.3.4M112.1,12.6c0,.1,0,.2,0,.3h0c0-.1.2-.3.3-.3q0-.1,0-.2s-.1,0-.1.2M112.5,7c.2.2.3.2.4.2,0,0,0,0,0-.1h0v-.3c0-.1,0-.2,0-.3,0,0-.5-1.2-.7-1.7v-.2h0c-.3.2-.4.5-.4.8,0,.7.3,1.3.7,1.6M111.6,5.4h0q0-.1-.2-.2c0,0-.2,0-.2.1,0,.1,0,.2-.2.3,0,0,0,.1,0,.1,0,.1,0,.1.2.1h.4c-.1,0-.1-.1-.1-.4h0M112.4,3.5h0q0,0,.2,0c0-.2,0-.3-.2-.4s-.2,0-.3,0h0,0c.1,0,.2.2.3.4M111.9,4.1q0,0,0,.2c0,0,0,.2,0,.2h0c0,0,0,0,.2,0h0v-.2l.2-.2h0v-.3h0c0,0,0,0,0,0,0,0-.3,0-.4.2,0,.2,0,.3,0,.3h0ZM114,4.3c0,0,.2-.3.2-.4s0-.2,0-.3h0c0,0,0,0,0,0v.2c0,0,0,.3,0,.4,0,0,0,.1,0,.1M117.9,3.6h0q0,0,0-.2c0,0,0,0,0-.2s0,0,0,0h0c0,0,0-.2,0-.2l.6-.2h0c0-.2.2-.2.3-.2.5,0,1.9-.2,2-.2s0,0,0,0l.2.2h0c0,0,0,0,0,0h.2q0,0,0,.2v.2c0,.3-.2.6-.4.8h0c.3.5.6,1.1.6,1.7l-.2-.2h0s0,0,0-.1h0v.2c.2.5.3,1.1.3,1.7h0l-.2-.3c0-.1,0-.1,0-.1h0c0,.4.2.7.2,1s0,.6,0,.9,0,.2,0,.3h0c0-.2,0-.3,0-.4,0,0,0-.1,0-.1h-.2c0,.1,0,0,0,0,0,.5,0,.9-.4,1.3,0,.1-.2.2-.3.3h0c0,.1,0-.8,0-.8h0q0-.1,0-.1h0c0,.3-.3.5-.5.8,0,.1-.2.1-.4.1h.2s0-.1,0-.2c0-.1,0-.3,0-.4s0-.2,0-.3c0,0-.2.1-.2.1h-.2c-.5.1-1,.3-1.5.5-.4.2-.7.4-.8.5,0-.2,0-.4,0-.5,0-.2,0-.4,0-.6h0v-.2h0c0-.1,0-.1,0-.1-.2,0-.3.1-.5.2,0,0,0,.1-.2.1,0-.5.2-1,.5-1.3.2-.2.4-.3.6-.4,0,0,0,0,0-.1h0c0-.1,0-.1,0-.1h-.3c0-.1-.2-.1-.2-.1h0c.3-.4.8-.6,1.4-.6h.5v-.2h0l-.3-.4s0,0,0-.1h.5c0,.1.3.1.4.1.2,0,.4-.1.5-.2,0-.1,0-.2.2-.3v-.2c0-.1,0-.2,0-.2h-.2c0,0-.2,0-.3.1,0,.1,0,.1,0,.1h0l-.2-.2h-.2c0-.2.2-.2.3-.2h.7c0,0,.3,0,.4-.1s0-.2,0-.3v-.2c0-.3-.2-.5-.4-.8,0,0,0-.2-.3-.2s-.3,0-.4,0,0,0-.2.2-.2,0-.3,0-.2,0-.2,0q0,0,0-.2M119.4,3c0,0,0,0,.2,0h.2c0,0,.2-.2.2-.3s-.4,0-.4,0h0,0M112.7,4.9c.2.5.4,1,.6,1.5v.2c0,.1.2.2.2.4s0,.2,0,.3v.2h0c0,.2,0,.3,0,.3v.2c.2.1.2.2.3.3h0c0,.1,0,0,0,0v-.3c0-.1,0-.1,0-.1,0,0,0,0,0,.1s0,.2,0,.3h0c0,.1,0,.4,0,.4,0,.2.3.4.6.5v-.4h.2c0,.1,0,.2,0,.2,0,.2.2.3.4.5.3.3.6.6,1,.7v-.3c0-.2,0-.4,0-.5h0c0,.1-.5.5-.5.5v-.6c0-.6.2-1.1.6-1.5,0-.1.2-.2.4-.3h-.6c-1.2-.2-2.2-.7-3.1-1.5-.2-.1-.3-.3-.3-.6s0-.3,0-.4c0-.1.3-.2.5-.3h0c0-.1,0-.2-.2-.3l-.4-.3h0c0,0,0,0,0,0-.2.2-.4.4-.4.7h0M113.7,10.9h0q0-.1,0-.1l-.2-.2h0c0-.1,0-.1,0-.1h-.4v.2c0,.2.3.3.5.4,0,0,.2.1.3.1h0c0-.2,0-.3,0-.4h0ZM112.3,10.8c0,0-.3.1-.4.1h0c0,.1,0,.1,0,.1h.5c0-.1,0-.1,0-.2,0,0-.2,0-.2,0M113.4,10c0-.1-.2-.1-.3-.1h0c0,.1.2.3.3.4h0l.2.2c0-.2-.2-.4-.3-.5M134.8,11.5h.1c0-.1.1-.2.1-.2-.1,0-.2-.1-.3-.1s-.3.1-.4.1h-.1c.1.1.2.1.2.1.1,0,.2.1.4.1h0ZM134.8,11.9c0,.1.1.2.2.3q.1.1.2.1h.3c.1,0,.3,0,.2-.1,0,0-.1-.1-.1-.2v-.2c-.1-.1-.2-.2-.2-.3h0q0-.1-.1-.1s-.1,0-.1.1l-.3.3q0,0,0,0M134.1,12.9c-.1.1-.1.2-.1.3h0c.1-.2.2-.3.4-.3h0v-.2h0c-.2,0-.3.1-.3.2M124.9,11.2h.3c0-.2,0-.3-.3-.4,0-.1-.2-.1-.4-.1h0c.2,0,.4.2.5.5h0ZM135.7,13.4h0c-.1,0-.2.2-.2.3,0,.2.1.3.2.5h0v-.3c0-.1,0-.2.1-.3h0v-.2M137.2,13.4h-.3c0,.2.1.3.3.4.1.1.2.1.3.1h-.1c-.1,0-.2-.2-.2-.5M113.3,13.1c0,.1-.2.3-.2.4v.2h0c0-.3,0-.4.3-.5h-.1M123.3,11.4c0,0-.3.1-.4.1h.3c0-.1,0-.1,0-.1q.1,0,0,0M123.5,12.2h0q0,.1.2,0h.2c0-.1,0-.3,0-.3v-.2h0c0-.1-.2-.3-.2-.3h-.3c0,.1,0,.2,0,.2h0c0,.2,0,.3,0,.3h0M137.5,12.5v-.2c0-.1.1-.2.2-.3h0c.1-.1.1-.2.1-.4s-.1-.5-.3-.6v-.2c0-.1,0-.3.1-.4.1-.2.1-.3.1-.5s0-.2-.1-.2c0,.1-.1.4-.3.4s-.1-.2-.1-.3h0v-.4c0-.2,0-.4-.1-.5,0,.1,0,.2-.1.3h-.2s0-.1-.1-.1h0c0-.1,0-.2-.1-.4,0-.1-.1-.3-.1-.4v.2c0,.1,0,.2-.1.2s-.1,0-.1-.1v-.2c0-.1-.1-.2-.1-.4,0,0,0-.1-.1-.1h0v.2c-.2.2-.3.3-.5.4-.2.2-.5.3-.8.3-.5,0-.9-.1-1.3-.4-.3-.2-.7-.4-1-.6h-.1c0-.1.4-.1.4-.1.4,0,.8,0,1.2-.2.3-.2.6-.4.8-.7s.4-.5.7-.7c.2-.1.4-.2.6-.1.2,0,.4,0,.5.1-.1-.4-.5-.6-.9-.6s-.8.2-1,.5h0c0,.1,0-.2,0-.2h0c0-.3-.1-.4-.2-.5-.4-.4-1-.7-1.5-.6h-.2c-.7,0-2,.5-3.3.7-1.2.2-2.5.3-3.8.3s-.6,0-.8-.1c-.2,0-.4-.1-.6-.3,0-.1,0-.2,0-.3,0-.2,0-.4.3-.5.2,0,.4,0,.6,0,.7,0,1.4.3,2.1.6.4.1.8.2,1.2.2.7-.1,1.3-.2,1.9-.5.4-.2.7-.2,1.1-.2h.4c-.3-.3-.7-.4-1.1-.4s-.8,0-1.1.3h0c0-.2.1-.3.2-.4,0,0,.1-.2.1-.3-.1,0-.3,0-.5-.2-.3,0-.6,0-.9,0h-.1c-.5,0-.9,0-1.3.3-.4.2-.8.3-1.3.3h-.5c-.5,0-.9,0-1.3.2-.3,0-.6.5-.5.9,0,.4.2.7.6.9.5.2,1,.4,1.6.3h0c1.7-.1,3.3-.3,4.9-.6.7-.2,1.3-.3,2-.3s.6.1.9.2c.3.2.4.4.4.7s-.1.4-.2.6c-.2.2-.5.3-.8.3-.6,0-1.2-.1-1.8-.2h.3-.5c-1-.2-2-.3-3-.3h-.2c-.9,0-1.7.1-2.6.2-1,.2-2,.4-2.3.5v1l-.3-.4h0c0,.4,0,.8-.2,1.1,0,.1,0,.2,0,.3h0l-.2.4-.2-.3c0,.4-.2.8-.5,1.1,0,.1-.2.2-.4.3h0c0,.1-.4.3-.4.3v-.7c0,.1-.2.2-.2.3,0,.1-.3.2-.6.2h-.5c0-.1.2-.4.2-.4,0,0,0-.1,0-.1,0-.1,0-.2,0-.3h0q0-.1-.2-.1h0c-.5.1-.9.3-1.4.5-.4.2-.8.4-1.1.7l-.7.4c-.4.2-.8.3-1.2.4h-.3c-.2,0-.3,0-.4-.2-.2,0-.3-.1-.5-.1,0-.1-.3-.2-.4-.3s0-.1-.2-.2c-.2.2-.3.4-.4.7v.3h0c.4,0,.8,0,1.2-.1h0s0,0,0,.1h0s0,.1,0,.1c-.4.1-.8.1-1.3.1h0c0,.2,0,.4.2.6,0,.1.2.2.4.2h0c.3-.2.7-.4,1.1-.6h0s0,0,0,.1h0s0,.1,0,.1h0l-.3.2-.3.2h0c0,.2.2.4.3.5,0,.1.2.1.3.2,0,0,.2-.1.4-.3,0-.1.3-.2.4-.2h.7c0,0,.2-.1.2-.2h0c0-.1,0-.1,0-.1,0,0,.3,0,.4.1.2.1.4.1.6.1h0,0c0-.1-.2-.3-.2-.3h0c0-.2,0-.2,0-.2h.2c.3.2.6.3,1,.3h.3c0,0,0-.1-.2-.2q0-.1,0-.1h0c0-.1,0-.1,0-.1h1c.2,0,.3,0,.5-.1l-.3-.3h0v-.2h.5c.2.2.4.2.6.2s.3,0,.5-.1c0,0-.2-.1-.2-.1h0v-.2s0-.1,0-.1h.3c.2,0,.4,0,.6-.1l-.3-.4h0c0-.1.2-.2.2-.2.2,0,.4-.1.5-.2.6-.2,1.1-.4,1.7-.7,1.1-.7,2.3-1.4,3.6-1.8.3-.1.6-.1.9-.1s.6,0,.9.1c.3.1.5.3.7.5.3.2.5.6.8.8.2.2.4.4.6.6h.1c.1.2.2.2.2.2.2.1.4.2.6.3,0-.1-.1-.5.1-.4s.1.1.2.2c.1.1.2.1.2.2.1.1.3.2.4.2h.1l-.2-.6h0c0-.1,0-.2.1-.2h1.2c.3,0,.5-.1.8-.2h.4q.1.1.1.2c0,.1.1.2.1.2.2.3.3.6.3,1v.2c0,.2-.1.4-.2.6-.1.2-.3.3-.5.3h-.2c-.1,0-.3-.1-.4-.1h-.1c-.1,0-.2.1-.2.2s0,.2.1.2h0s0,.1.1.1c.1.1.2.1.3.1h0c.1,0,.2-.1.3-.2.1,0,.1-.1.2-.2h0l.2-.3h.2c0,.1-.1.2-.1.2v.2h-.1c0,.1.2.3.2.3,0,.1.1.1.1.1.1,0,.3-.1.3-.2.1-.1.1-.2.2-.2,0-.1.1-.3.1-.4v-.2h0q0-.1.1-.1h.1v.8h.7q.1-.1.1-.2h0q0-.2-.1-.3h-.3M130.2,11.3c-.1,0-.2-.1-.4-.1-.2-.1-.4-.4-.4-.6,0-.3.2-.5.4-.8.1-.1.3-.2.4-.4l-.6-.6c-.2-.2-.4-.3-.6-.4-.2-.1-.5,0-.7.1-.1.1-.3.1-.4.2-.4.3-.7.7-.9,1.2,0,0,.1,0,.1-.1.1-.1.2-.1.2-.2h.2v.2h0q0,.2-.1.3c0,.2-.1.3-.1.5.1-.1.1-.2.2-.3h.2c0,.3,0,.5.1.7.1.1.1.3.1.5-.1.2-.2.3-.4.4-.1.1-.2.1-.3.1-.2,0-.3,0-.5.1l-.6.3h-.2c-.3,0-.5-.1-.7-.3,0-.1,0-.2,0-.3,0-.2,0-.4.2-.5h-.7c0,0-.2,0-.2.1h0s0,.1,0,.2v.4c0,.2,0,.3,0,.5h0c0,.2,0,.4,0,.5.3.3.6.5,1,.6.3.1.6.1.9.2h0c0,0,.6-.2.8-.2s.7-.1.9-.1l-.3-.2h0c0-.1.1-.1.1-.1h1c.2,0,.3-.1.5-.2h-.4v-.2h0c0-.1.1-.1.1-.1h.2c.1,0,.3-.1.4-.1.2-.1.3-.2.4-.3h-.1c-.1,0-.2-.1-.2-.2h0v-.2h.3c.2-.2.3-.3.4-.6.1,0,.1-.1.1-.1h-.2M123,12.7c0,.1,0,.1,0,.2h0c0-.1.2-.1.3-.1h0v-.2c-.1,0-.2.1-.2.1M124,13.3h0v.2c0,0,0,.1,0,.2,0,.1.3.2.4.2s.2,0,.2-.1,0-.1,0-.2c-.2-.1-.4-.2-.5-.4h0M124,12.9c0-.1,0-.3,0-.5h-.4s0,.1,0,.2v.2h0c0,.1,0,.2,0,.2,0,.1.3.1.4.1h0v-.2M123.7,13.5c0,.1,0,.3,0,.4h0c0-.1,0-.1,0-.2,0,0,0,0,0-.2h0M115.8,4.3c0,0,.3.2.5.3.2,0,.4.1.5.1.3,0,.7,0,1-.1s.6-.1.9-.1.6.1.9.3c-.2-.2-.6-.4-.9-.4h-1.9c-.3,0-.5-.2-.7-.4h0c0,0-.2,0-.3,0h0c-.2,0-.2.2,0,.3q0-.1,0,0h0Z"/>
    <path id="path19" class="cls-5" d="M116.6,37.2c0-.3,0-.6.2-.8h0c.8.3,1.6.5,2.4.6,1.4.2,2.7.6,4,1.2-.3,0-.7-.3-1-.3-.9-.3-1.9-.4-2.8-.3-.9,0-1.8-.1-2.8-.4M132.4,37.6c-.9.2-1.9.3-2.9.2s-1.9,0-2.9.3c-.4,0-.8.2-1.2.3,1.4-.3,2.9-.4,4.3-.2.9,0,1.8.2,2.8,0,0-.2-.1-.5-.1-.7M125.8,38.1c.3,0,.7-.2,1-.3.9-.3,1.9-.4,2.8-.3.9,0,1.8,0,2.7-.3-.1-.3-.1-.6-.2-.8h0c-.8.3-1.6.5-2.4.6-1.4,0-2.7.5-3.9,1.1M119.4,37.8c-1,0-1.9,0-2.9-.2,0,.2,0,.5,0,.8.9,0,1.9,0,2.8,0,1,0,2,0,2.9,0,.5,0,.9,0,1.4.2-.4,0-.8-.3-1.2-.3-.9-.3-1.9-.4-2.9-.4M118.4,31.7l-1.4,4.4c1.2.8,5.7.6,7.4,2.6v-4.7c-.5-2.1-4.8-1.6-6-2.3M130.5,31.6c-1.2.8-5.5.3-6,2.3v4.7c1.7-2,6.2-1.8,7.4-2.6l-1.4-4.4Z"/>
    <path id="path21" class="cls-5" d="M110.6,19.9l.2.3c0,.1.2.2.4.2h0c0,.2-.2.5-.2.7v.2c0,.2,0,.3,0,.5h0c-.2.2-.2.4-.2.6h0c0,.2.3.3.4.3h.2c0,.1.2.2.3.3h0c.2.3.4.5.6.6-.2.1-.3.3-.2.5v.4c0,.2.3.3.5.3h.5c.2-.1.3-.2.3-.4.2.2.4.3.6.4h.2c0,0,.3.1.4.2h0c0,.3.2.4.4.4h0c.2,0,.4-.1.4-.3s0-.1,0-.1c0-.1.3-.2.4-.2h.2c.3-.1.5-.2.7-.5,0,.2.2.3.4.4h.4c.2,0,.4-.2.4-.4v-.4c0-.1,0-.2,0-.3h0c.2-.2.4-.4.6-.6h0c0-.2.2-.4.3-.4h.2c.2,0,.4-.1.4-.3h0c0-.2,0-.4-.2-.5h0c0-.2,0-.4,0-.6v-.2c0-.3,0-.5,0-.8h0c.2,0,.3-.1.4-.3l.2-.4c0-.1,0-.2,0-.3,0-.1,0-.2-.2-.3l-.4-.2h-.2c0,0-.2,0-.3.1,0-.2,0-.5-.3-.7h0c0-.2-.2-.4-.2-.5v-.2c0-.2,0-.4-.2-.5h0c0-.1-.2-.1-.2-.1,0,0-.2,0-.3.1h0c0,.1-.3,0-.4,0h-.2c-.2-.1-.3-.1-.5-.1h-.3v-.2c0-.1,0-.2,0-.3l-.3-.3c0-.1-.2-.1-.3-.1s-.3,0-.4.2l-.3.3c0,.1,0,.3,0,.5h-.2c-.2,0-.3,0-.5.1h0c0,.2-.3.2-.4.2h0q0,0,0-.1c0-.1-.2-.1-.3-.1s-.2,0-.2.1h0c-.2.1-.2.3-.2.5v.2c0,.1,0,.3-.2.4h0c-.2.3-.3.6-.3.9,0-.1-.2-.1-.3-.1s-.2,0-.2.1l-.3.2c0,.2-.1.5,0,.6h0"/>
    <path id="path23" class="cls-5" d="M115.2,19.1c.4,0,.8.3.9.7h0c.5,0,.9.4.9.9s-.2.6-.5.8c.2.4,0,.9-.3,1.2-.6-.2-1.3-.1-1.8.2-.5,0-.9-.4-.9-.9s0-.3,0-.4c-.4-.2-.6-.7-.4-1.1,0-.4.5-.6.9-.6h0c.1-.5.4-.8.9-.8"/>
    <path id="path25" class="cls-3" d="M115.3,19.1c.4.1.7.4.8.7h0c.4,0,.7.2.8.5.3-.1.5-.2.8-.3.7-.4.8-.8.4-1.4-.2-.2-.3-.4-.4-.7,0-.2,0-.4,0-.4s-.2.1-.4.1c-.3,0-.5,0-.8-.2-.7-.2-1.1,0-1.2.8-.1.4-.1.6-.1.9M115.1,17.4h0l.3-.4v-.2l-.3-.3h0l-.3.3v.2l.3.4ZM112.6,20.1c.2.1.5.2.7.3.2-.3.5-.5.8-.5h0c0-.2,0-.4.3-.5.2-.2.4-.3.6-.3,0-.3,0-.5,0-.8,0-.8-.6-1-1.2-.8-.2.1-.5.2-.8.2s-.4-.2-.4-.1c0,0,0,.2,0,.5,0,.3-.2.5-.4.7-.3.4-.3.9.4,1.3M110.9,19.8l.2.3h0l.5-.2h0c0-.1-.3-.4-.3-.4h0l-.3.2c0,0,0,0,0,0M118.8,20h.5c0,.1,0,.1,0,.1h0l.2-.4q0-.1,0-.1h0l-.4-.2h0l-.3.4c0,.1,0,.2.1.2h0M113.2,24.1c0-.1,0-.1,0-.1h0l-.5.2c0,0,0,.1,0,.1v.4c0,.1.2.1.2.1h.4c0-.1,0-.2,0-.2h0v-.5ZM119.1,21.3c0-.7-.3-1-1.2-.9-.3,0-.5.1-.8.2,0,.4,0,.8-.4,1,0,.2,0,.4,0,.5,0,.2,0,.4-.3.5,0,.2.3.4.5.6.6.6,1,.5,1.5-.1,0-.2.3-.5.5-.6s.4-.1.4-.2h0c0-.1,0-.2-.2-.4,0-.1-.2-.4,0-.6M113.7,21.6c-.4-.2-.5-.6-.4-1-.2-.1-.5-.1-.8-.2-.8-.1-1.1.2-1.2.9,0,.3,0,.5,0,.8,0,.2-.3.3-.2.4s.2.1.4.2.4.4.6.6c.2.4.7.6,1.1.4,0-.1.2-.2.3-.3.2-.2.3-.4.5-.6-.2-.4-.3-.8-.2-1.2M117.9,24.2h-.5q0-.1,0,0h0v.5q0,.1,0,.1h.4q0,0,0-.1v-.5c0,0,0,0,0,0q0-.1,0,0h0M116.7,23.4c.4.7,0,1.2-.5,1.4-.3.1-.5.2-.7.3,0,.1-.2.3-.3.3s0-.2-.3-.3c-.2-.2-.5-.3-.7-.3-.6-.2-.9-.7-.5-1.4,0-.2.2-.4.4-.6.6-.3,1.2-.2,1.7.1.2,0,.3-.1.5-.1.2.2.3.4.4.6"/>
    <path id="path27" class="cls-3" d="M114,21.3h.2c0,.1,0,.2,0,.2-.2.3,0,.6.2.8s.6.1.8-.2h0q0-.1,0-.2s0,0,0,.1h0s0,.1,0,.1c.2.3.5.4.8.2.3-.2.4-.5.2-.8,0,0,0-.1,0-.1h0v-.2q0-.1,0-.1h0c.3-.1.4-.5.3-.8s-.4-.4-.6-.3h0c0,.1,0,.1,0,.1,0,0,0-.1,0-.1h0c0-.4-.3-.6-.7-.6s-.5.2-.5.5v.2h0c0,.1,0,.1,0,.1h0c-.3-.2-.6-.1-.8.2h0c-.1.3,0,.7.4.9q0,0,0,0h0"/>
    <path id="path29" class="cls-5" d="M114.7,21.1c0-.2.2-.5.4-.5.3,0,.5.2.5.5s-.2.5-.5.5h0c-.2-.1-.4-.3-.4-.5"/>
    <path id="path31" class="cls-5" d="M138.3,19.9l-.2.3c-.1.1-.2.2-.4.2h0c.1.2.2.5.2.7v.2c0,.2,0,.3.1.5h.1c.2.2.2.4.2.6h0c-.1.2-.3.3-.4.3h-.2c-.1.1-.2.2-.3.3h-.1c-.2.3-.4.5-.6.6.2.1.3.3.2.5v.4c-.2.2-.3.3-.5.3h-.5c-.2-.1-.3-.3-.3-.4-.2.2-.4.3-.6.4h-.2c-.2,0-.3.1-.4.2h-.1c-.1.3-.2.4-.4.4h0c-.2,0-.4-.2-.5-.3,0-.1-.1-.1-.1-.1-.1-.1-.3-.2-.4-.2h-.2c-.3-.1-.5-.2-.7-.5,0,.1,0,.2-.1.2-.1.1-.2.1-.3.2h-.5c-.2,0-.4-.2-.4-.4v-.4c0-.1,0-.2.1-.3h.1c-.2-.2-.4-.4-.6-.6h-.1c-.1-.2-.2-.4-.3-.4h-.2c-.2,0-.4-.2-.4-.3h0c0-.2,0-.4.2-.5h.1c.1-.2.1-.4.1-.6v-.2c0-.3.1-.6.2-.8h-.1c-.2,0-.3-.1-.4-.3l-.2-.4c-.1-.1-.1-.2,0-.3,0-.1.1-.2.2-.3l.4-.2h.2c.1,0,.2,0,.3.1,0-.2.1-.5.3-.7h.1c.1-.2.2-.4.2-.5v-.2c-.1-.2,0-.4.2-.5h0c.1-.1.2-.1.2-.1.1,0,.2,0,.3.1h.1c.1.1.3,0,.4,0h.2c.2-.1.3-.1.5-.1h.3v-.2c0-.1.1-.2.1-.3l.3-.3c.1-.1.2-.1.3-.1s.3,0,.3.2l.3.4c.1.1.1.3.1.5h.2c.2,0,.3,0,.5.1h.2c.1,0,.3.1.4.1h.1c.1-.1.2-.2.3-.2s.2,0,.2.1h0c.1.1.2.3.2.5v.2c.1.1.1.3.2.4h.1c.2.3.3.6.3.9.1-.1.4-.2.5-.1l.4.2c.1.1.2.2.2.3.1.2.1.3,0,.4"/>
    <path id="path33" class="cls-5" d="M133.7,19.1c-.4,0-.8.3-.9.7h-.1c-.5,0-.9.4-.9,1s.2.6.5.8c-.1.2-.1.4-.1.5.1.5.5.9,1.1.8.2,0,.4-.1.5-.3.2.2.4.3.6.3.5,0,.9-.4.9-.9s0-.3-.1-.4c.5-.2.6-.8.4-1.3-.1-.2-.2-.3-.4-.4-.1-.1-.3-.1-.4-.1h-.1c-.2-.4-.5-.8-1-.7"/>
    <path id="path35" class="cls-3" d="M133.6,19.1c0-.3,0-.5-.1-.8-.1-.8-.6-1-1.2-.8-.2.1-.5.2-.8.2s-.4-.2-.4-.1h0c-.1.1,0,.3,0,.5-.1.3-.2.5-.4.7-.3.3-.3.9,0,1.2.1.1.2.2.4.2.2.1.5.2.8.3.2-.3.5-.5.8-.5h.1c0-.6.4-.9.8-.9M134.1,17h0c0-.1-.3-.4-.3-.4h-.1l-.3.3v.2l.3.4h.1l.3-.5ZM136.3,20c.5-.1.7-.6.6-1,0-.1-.1-.3-.2-.4-.2-.2-.3-.4-.4-.7,0-.2.1-.4,0-.5s-.2.1-.4.1c-.3,0-.5,0-.8-.2-.7-.2-1.1,0-1.2.8,0,.3-.1.5-.1.8.2,0,.4.1.6.3.1.1.2.3.3.5h.1c.4,0,.7.2.8.5.2.1.5,0,.7-.2M138,19.8h0c0-.1-.3-.3-.3-.3h-.1l-.3.4h0c0,.1.5.3.5.3h.1v-.4M130.2,20c.1,0,.1-.1.1-.1h0l-.3-.4h-.1c0-.1-.4.1-.4.1h-.1c0,.1.2.5.2.5,0,.1.1.1.1,0h.5M135.8,24.5q0,.1.1.1h.4q.1.1.1,0h0v-.4q.1-.1,0-.1h0l-.5-.2q-.1,0-.1.1h0v.5ZM129.9,21.2c0,.3,0,.5-.1.8-.1.2-.3.3-.2.4h0c0,.1.2.1.4.2.2.2.4.4.5.6.2.4.8.5,1.2.3.1-.1.2-.2.3-.3.2-.2.4-.4.5-.6-.3-.3-.4-.7-.2-1.1-.4-.2-.5-.6-.4-1-.3-.1-.5-.2-.8-.2-.9-.2-1.2.2-1.2.9M135.2,21.5c.2.4.1.8-.2,1.1.1.2.3.4.5.6.3.4.8.5,1.2.3.1-.1.2-.2.3-.3.1-.2.3-.5.6-.6.2-.1.4-.1.4-.2s-.1-.2-.2-.4c-.1-.3-.1-.5-.1-.8,0-.7-.3-1-1.2-.9-.3,0-.5.1-.8.2.1.2,0,.5-.1.7,0,0-.2.2-.4.3M131,24c-.1,0-.1.1,0,0h-.1v.5c0,.1.1.1.1.1h.4c.1,0,.1-.1.1-.1h0v-.5c0-.1-.1-.1-.1-.1h-.4M132.1,23.4c.1-.2.3-.4.4-.7.1.1.3.1.5.1.4-.3.9-.3,1.3,0,.2,0,.3,0,.5-.1.1.2.3.4.4.6.4.7.1,1.2-.5,1.4-.3.1-.5.2-.7.3-.1.1-.2.3-.3.3s-.1-.2-.3-.3c-.2-.2-.5-.3-.7-.3-.5-.1-.8-.5-.7-1,0,0,0-.2.1-.3"/>
    <path id="path37" class="cls-3" d="M134.9,21.3h-.2c0,.1.1.2.1.2.2.2.2.6,0,.8s-.6.2-.8,0h-.1c0-.1-.1-.2-.1-.2h-.1c0-.1-.1-.1-.1-.1h0s0,.1-.1.1c-.2.3-.5.3-.8.2-.3-.2-.3-.5-.2-.8h0c0-.1.1-.2.1-.2h0c0-.1,0-.2-.1-.2h-.1c-.3,0-.6-.3-.5-.6,0-.3.3-.6.6-.5h.2s.1,0,.1.1h.1c.1,0,.1-.1.1-.1h0c0-.4.2-.7.5-.7h0c.3,0,.6.2.6.6h0v.2h0c0,.1.1.1.1.1h.1c.3-.2.6,0,.7.3h0c.1.3-.1.5-.3.6"/>
    <path id="path39" class="cls-5" d="M134.2,21.1c0-.3-.2-.5-.5-.5s-.4.2-.4.5.2.5.4.5h0c.3-.1.5-.3.5-.5h0"/>
    <path id="path41" class="cls-4" d="M41.5,11.1c0-1.7.6-3.4,1.9-4.6,2.1-1.6,5-1.7,7.1-.2.7.5,1.2,1.2,1.2,2.1s-.5,1.2-1.2,1.2h0c-.6,0-1.1-.5-1.1-1.1h0c0-.5,0-1,0-1.4-.5-1.1-2-1-2-1-2.2,0-3.2,2.2-3.2,4.9s2,4.9,3.7,4.9c1.5-.1,2.8-.9,3.6-2.1l.7.4c-1.7,2.7-5.2,3.5-7.9,1.8-1.7-1-2.7-2.9-2.7-4.9M46.1,22.5h-4.4v.6l1.6.5-2.6,7.3-2.7-7.4,1.6-.4v-.6h-5.2v.6l1.3.4,3.8,9.2h1.2l3.9-9.2,1.5-.4v-.6ZM13.9,19.5h0l1.9-.5v-.7h-5.1v.7l2,.5v9.3s.1,3.1-4,3.1-4.1-2.7-4.1-3.1v-9.3l2.1-.6v-.6H.4v.7l2,.5v9.2s-.3,4.4,5.9,4.4,5.5-4.1,5.5-4.1v-9.5ZM95.9,23.1l1.8.5-2.7,7.2-2.9-7.2,1.5-.4v-.7h-5v.7l1.4.4,4,9.9c-.3.5-.5,1-.8,1.5s-.9,1.5-1.7,1.6c-.8,0-.8-.8-1.4-1-1-.5-1.9.8-1.2,1.6.3.4.8.6,1.4.7.6,0,1.1,0,1.6-.3.3,0,.5-.3.8-.5.5-.4.8-1,1.1-1.5.5-.9.9-1.8,1.3-2.7l1-2.4c.4-1,.8-2,1.2-2.9s.7-1.7,1.1-2.5c.2-.4.3-.8.5-1.2h0l1.5-.4v-1h-4.5v.6ZM14,11.7l-.5-.2h-.1c-1.4,2.4-3.8,4-6.6,4.3,0,0-2.1.1-2.1-1.8h0V2.1l2-.6v-.5H.4v.6l1.9.5v13.2l-1.9.6v.8h11.8l1.8-5ZM29.1,15.3l-1.9.6v.7h6v-.7l-1.9-.6v-7c.5-.4,1.1-.8,1.7-1.1.8-.5,1.7-.8,2.6-.8.5.1.9.3,1.2.7.4.6.6,1.2.5,1.9v6.2l-1.9.7v.7h6.1v-.7l-1.9-.6v-7c0-.8-.3-1.5-.9-2-.7-.5-1.4-.8-2.3-.9-1.5-.1-2.9.3-4.1,1.1-.3.2-.7.5-1,.7v-1.7h-.8l-3.4.9v.7h2v8.2ZM26.6,31.5v-6.4c0-.7-.3-1.4-.8-1.8-.6-.5-1.3-.7-2.1-.8-1.3-.1-2.7.2-3.8,1-.3.2-.6.4-.9.7v-1.7h-.7l-3.1.8v.6h1.8v7.6l-1.8.6v.6h5.5v-.6l-1.7-.6v-6.4c.5-.4,1-.7,1.5-1,.7-.5,1.5-.7,2.4-.7.4.1.8.3,1.1.7.3.5.5,1.1.5,1.8v5.7l-1.8.5v.6h5.7v-.7l-1.8-.5ZM70.7,9.6c-1.7-.3-3.1-.8-3.1-1.9s1.6-1.5,2.3-1.5c1.8,0,3.3,1.1,4,2.7h.7l-.6-3.4h-.6l-.2.8c-.9-.6-2-1-3.1-1-2.8,0-4.4,1.6-4.4,3.4s2.3,2.5,4,3,3.9.6,3.9,2.2-2.7,2-2.7,2c-2.1,0-4-1.3-4.7-3.3h-.8l.7,4h.7l.3-.9c1.2.6,2.5,1,3.8,1.1,2.8,0,4.6-1.8,4.6-3.7s-3-3.1-4.8-3.5M86.2,32.1c-.8,0-1.5-.6-1.6-1.4v-7.6h3v-.7h-3v-3.8h-1c0,1.1-.3,2.1-.8,3-.5.6-1.2,1-2,1v.7h1.6v7.5c0,1.4,1.3,2.2,2.8,2.2,1.2,0,2.4-.4,3.2-1.4l-.5-.5c-.4.5-1.1.9-1.7,1M77.3,13.1v1.4c0,1.5,1.4,2.3,3.1,2.3,1.3.1,2.5-.4,3.4-1.3-.2-.2-.3-.4-.4-.6-.5.6-1.2.9-2,1-.9,0-1.6-.7-1.7-1.5V6.3h3.3v-.8h-3.3V1.3h-1c0,1.1-.3,2.2-.9,3.2-.5.6-1.3,1-2.1,1.1v.7h1.7v6.8ZM83.3,11.1c0-1.8.7-3.6,2.2-4.7,1-.7,2.1-1,3.3-1,2.6-.1,4.8,2,4.9,4.6h0c0,.1-8,.1-8,.1,0,0-.8,5.8,3.7,5.8s2.8-.8,3.5-2.1l.7.3c-.8,1.8-2.6,2.8-4.5,2.8-3.2-.1-5.8-2.7-5.8-5.8M85.7,9h5.6c0-1.5-1.1-2.8-2.6-2.9h0c-1.5-.1-2.8,1.1-2.8,2.6,0,0,0,.2,0,.3M48.2,26.7s-.8,5.3,3.4,5.3,2.6-.7,3.2-1.9l.7.3c-.7,1.6-2.4,2.6-4.2,2.5-3,0-5.4-2.5-5.3-5.5,0-1.6.8-3.1,2-4.1.9-.6,1.9-.9,3-.9,2.4-.1,4.5,1.8,4.6,4.2h0c0,.1-7.4.1-7.4.1ZM48.2,25.8h5.1c0-1.4-1-2.6-2.4-2.6h0c-1.4-.1-2.5,1-2.6,2.4v.2M102.8,5.4h0c-2.4-.5-4.2,1.4-4.6,1.8v-1.7h-.8l-3.3.9v.7h2v8.3l-1.9.5v.7h6.2v-.7l-2-.5v-7.2c0-.1,1.2-1.2,2.1-1.2s1.1.6,2,.8h0c.7,0,1.2-.5,1.3-1.2,0-.6-.5-1.1-1.1-1.2M64.4,22.4h0c-2.2-.5-3.8,1.3-4.2,1.7v-1.6h-.8l-3,.8v.6h1.8v7.7l-1.8.5v.6h5.7v-.6l-1.9-.5v-6.6c0-.1,1.1-1.2,1.9-1.2s1,.6,1.9.7h0c.6,0,1.1-.5,1.1-1.1.1-.4-.3-.9-.8-1M32.9,22.5l-3.8.4v.8h1.8v7.8l-1.8.6v.6h5.6v-.6l-1.8-.6v-9ZM32.1,18.9c-.7,0-1.3.6-1.3,1.3s.6,1.3,1.3,1.3,1.3-.6,1.3-1.3h0c0-.7-.6-1.3-1.3-1.3h0M79.4,22.5l-3.8.4v.8h1.8v7.8l-1.8.6v.6h5.5v-.6l-1.7-.6v-9ZM77.2,20.2c0,.7.6,1.3,1.3,1.3s1.3-.6,1.3-1.3-.6-1.3-1.3-1.3h0c-.7,0-1.3.6-1.3,1.3h0M60.7,10.2v-2.2c0-1.7-1.8-1.7-2.6-1.7-.9-.1-1.7.2-2.3.8-.2.4-.3.9-.2,1.4,0,.6-.4,1.1-.9,1.2h0c-.6,0-1.2-.5-1.2-1.1h0c0-.8.5-1.6,1.2-2.1,1.2-.7,2.5-1,3.8-.9,1.3-.1,2.5.3,3.5,1,.7.6,1.1,1.5.9,2.4v6.5l2.2.6v.7c0,0-3.1,0-3.1,0l-1.3-1.4c-1.2,1-2.7,1.5-4.2,1.6-2.4,0-3.4-1.3-3.4-2.4,0,0-.4-2.4,3.1-3.5.6-.2,1.2-.3,1.8-.4.9-.5,1.8-.6,2.8-.5M60.7,10.9c-1.3.1-2.5.3-3.7.7-1,.3-1.7,1.3-1.7,2.4.2,1.1,1.2,1.8,2.2,1.6h0c1.2-.2,2.2-.7,3.1-1.5v-3.2ZM70.6,26.2c-1.6-.3-2.8-.7-2.8-1.8s1.5-1.4,2.2-1.4c1.6,0,3.1,1,3.7,2.5h.6l-.7-3.2h-.6l-.2.7c-.8-.6-1.8-.9-2.8-.9-2.6,0-4,1.5-4,3.1s2.1,2.3,3.7,2.8c1.6.5,3.6.5,3.6,2s-2.5,1.8-2.5,1.8c-1.9,0-3.7-1.2-4.3-3h-.7l.7,3.8h.7l.2-.8c1.1.6,2.3.9,3.5,1,2.6,0,4.3-1.7,4.3-3.4-.2-2.4-3-2.9-4.6-3.2M22.2,10.2v-2.2c0-1.7-1.8-1.7-2.5-1.7-.9-.1-1.7.2-2.3.8-.2.4-.3.9-.2,1.4.1.6-.3,1.1-.9,1.2h-.1c-.6,0-1.2-.5-1.2-1.2h0c.1-.8.5-1.6,1.2-2.1,1.2-.7,2.5-1,3.8-.9,1.3-.1,2.5.3,3.5,1,.7.6,1,1.5.9,2.4v6.5l2,.6v.7h-3l-1.2-1.4c-1.2,1-2.7,1.5-4.2,1.6-2.4,0-3.4-1.3-3.4-2.4,0,0-.4-2.4,3.1-3.5.6-.2,1.2-.3,1.8-.4.9-.3,1.8-.4,2.7-.4M22.2,11c-1.3,0-2.5.3-3.7.7-1,.3-1.7,1.3-1.7,2.4.2,1.1,1.2,1.8,2.2,1.6h.1c1.2-.2,2.2-.7,3.1-1.5v-3.2Z"/>
    <path id="path43" class="cls-5" d="M138.3,30.1c-1.1.3-2.2.4-3.3.4-1.6,0-3.1-.3-4.6-.8-.8-.3-1.6-.6-2.4-.9-1.2-.3-2.4-.5-3.6-.4-1.1,0-2.2.1-3.2.3-.6,0-1.2.3-1.7.6-.7.3-1.5.6-2.3.8-1.1.3-2.2.4-3.3.4s-2,0-3-.3c-.5,0-1-.3-1.5-.5.2.4.3.8.6,1.2h.4c1.2.4,2.4.6,3.6.5,1.7,0,3.4-.3,4.9-.9.7-.3,1.5-.6,2.3-.8,1.1-.3,2.2-.4,3.3-.4,1.6,0,3.1.3,4.6.9.8.3,1.6.6,2.4.9,1.2.3,2.4.5,3.6.4,1.1,0,2.2,0,3.2-.3.2,0,.5,0,.7-.2.2-.4.4-.8.6-1.2-.5,0-.9.3-1.3.3"/>
    <path id="path45" class="cls-5" d="M135,28.7c-1,0-2,0-3-.3s-1.1-.3-1.6-.5c-.8-.3-1.6-.6-2.4-.9-1.2-.3-2.4-.4-3.6-.4s-2.2.1-3.2.3c-.6.1-1.2.3-1.7.5-.7.3-1.5.6-2.3.8-1.1.3-2.2.4-3.3.4s-2,0-3-.3-1.1-.3-1.6-.5l-.8-.3c0,.4.3.8.4,1.2.5.2.9.3,1.4.5,1.2.3,2.4.5,3.6.5,1.7,0,3.4-.3,4.9-.9.7-.3,1.5-.6,2.3-.8,1.1-.3,2.2-.4,3.3-.4,1.6-.1,3.1.2,4.6.8.8.3,1.6.6,2.4.9,1.2.3,2.4.5,3.6.4,1.7,0,3.4-.2,5-.9.1-.4.3-.8.4-1.2-.7.3-1.4.5-2.1.8-1,.2-2.1.3-3.3.3"/>
    <path id="path47" class="cls-5" d="M108.2,26.7c.7.3,1.4.6,2.1.8,1.2.3,2.4.5,3.6.4,1.1,0,2.2-.1,3.2-.3.6-.1,1.1-.3,1.7-.6.7-.3,1.5-.6,2.3-.8,1.1-.3,2.2-.4,3.3-.4s2,.1,3,.3c.5.1,1.1.3,1.6.5.8.3,1.6.6,2.4.9,1.2.3,2.4.4,3.6.4s2.2-.1,3.2-.3c.6-.1,1.2-.3,1.7-.6l.7-.3c.1-.4.2-.8.4-1.1l-.4.2c-.7.3-1.5.6-2.3.8-2.1.5-4.2.5-6.3,0-.5-.1-1.1-.3-1.6-.5-.8-.3-1.6-.6-2.4-.9-1.2-.3-2.4-.5-3.6-.4-1.1,0-2.2.1-3.2.3-.6.1-1.2.3-1.7.6-.7.3-1.5.6-2.3.8-1.1.3-2.2.4-3.3.4s-2-.1-3-.3c-.5-.1-1.1-.3-1.6-.5s-.9-.4-1.4-.6c.1.3.2.7.3,1.2"/>
    <rect id="rect49" class="cls-5" x="106.8" y="14.9" width="35.2" height=".5"/>
    <path id="path51" class="cls-3" d="M2.4,54.8v-8.6h-1.1c0-.3,0-.7,0-1h3.7c0,.3,0,.7,0,1h-1.3v8.5h4v-2.4c.2,0,.4,0,.6,0s.4,0,.5,0v3.5H1.3c0-.3,0-.7,0-1h1.1Z"/>
    <path id="path53" class="cls-3" d="M15.9,55.4c-.3.2-.7.3-1,.4-.4,0-.8.2-1.3.2s-1.2,0-1.7-.3c-.4-.2-.8-.5-1.1-.9s-.5-.8-.7-1.2c-.1-.5-.2-1-.2-1.4s.1-1,.2-1.5c.1-.4.3-.9.6-1.2.3-.4.6-.7,1-.9s.9-.3,1.4-.3,1,0,1.5.3c.4.2.7.5,1,.9.2.4.4.8.5,1.3s.1,1,.1,1.5v.3h-5c0,.3.1.6.2.9.1.3.3.5.5.8.4.5,1.1.8,1.7.8s.9,0,1.3-.2c.3,0,.7-.3,1-.5v1ZM15,51.6c0-.3,0-.5-.1-.8s-.1-.5-.3-.8c-.1-.2-.3-.4-.6-.6-.3-.2-.6-.2-.9-.2s-.6,0-.9.2c-.2.2-.4.4-.6.6-.1.2-.2.5-.3.8-.1.2-.1.5-.1.7h3.8Z"/>
    <path id="path55" class="cls-3" d="M18.3,54.9v-5.6h-1c-.1-.3-.1-.6,0-.9h2.2v6.5h1c0,0,.1.3.1.4,0,.2,0,.3-.1.4h-3.2c-.1,0-.1-.3-.1-.4,0-.2,0-.3.1-.4h1ZM18.7,46.9c-.2,0-.4,0-.6-.2-.3-.4-.3-.9,0-1.3.3-.3.8-.3,1.1,0h0c.3.5.3,1,0,1.4,0,0-.3.2-.5.2h0Z"/>
    <path id="path57" class="cls-3" d="M22.4,57.3v-8h-1c-.1-.3-.1-.6,0-.9h2.2v1h0c.1,0,.2-.2.3-.4.1-.2.3-.3.4-.4.2,0,.4-.3.6-.3.3,0,.6,0,.9,0,.5,0,.9,0,1.3.3s.7.4,1,.8c.3.4.5.8.6,1.2.1.5.2,1,.2,1.4s-.1.9-.2,1.4-.2.9-.5,1.3c-.2.4-.6.8-1,1-.5.3-1,.4-1.5.4s-.4,0-.6,0-.4,0-.6-.2c-.2,0-.4-.2-.5-.4-.2,0-.3-.3-.3-.5v2.6h1.1c.1.3.1.6,0,.9h-3.4c-.1-.3-.1-.6,0-.9h1ZM25.6,55c.3,0,.6,0,.9-.2.3-.2.5-.4.6-.6.2-.3.3-.6.4-.9.1-.4.1-.8.1-1.1s0-.6-.1-.8c0-.3-.1-.6-.3-.9-.1-.3-.3-.6-.6-.8-.8-.6-1.9-.4-2.5.4-.1,0-.1.2-.2.4-.1.3-.2.7-.3,1,0,.3-.1.6-.1.9,0,.5.1.9.2,1.4.1.3.3.6.5.8s.4.3.7.4c.2,0,.4,0,.7,0Z"/>
    <path id="path59" class="cls-3" d="M29.7,54.8l4.5-5.5h-3.3v1.5c-.2,0-.3,0-.5,0s-.3,0-.5,0v-2.4h5.6v1l-4.5,5.5h3.7v-1.5c.2,0,.3,0,.5,0s.3,0,.5,0v2.4h-6v-1Z"/>
    <path id="path61" class="cls-3" d="M37.5,54.9v-5.6h-1c0-.3,0-.6,0-.9h2.2v6.5h1c0,0,0,.3,0,.4,0,.2,0,.3,0,.4h-3.2c0-.1,0-.2,0-.4s0-.3,0-.4h1ZM37.9,46.9c-.2,0-.4,0-.6-.2-.3-.4-.3-.9,0-1.3.3-.3.8-.3,1.1,0h0c.3.5.3,1,0,1.4-.2,0-.3.2-.5.2h0Z"/>
    <path id="path63" class="cls-3" d="M41.2,56.6c0,0,.2.2.4.3s.4.2.6.3c.2,0,.4.2.7.2.3,0,.6,0,.8,0,.6,0,1.2,0,1.7-.6.4-.5.6-1.1.5-1.7v-.6c-.2.4-.4.7-.8.8-.4.2-.8.3-1.2.3-.6,0-1.1,0-1.6-.3-.4-.2-.7-.5-1-.9s-.4-.8-.5-1.3,0-.9-.2-1.4c0-.5,0-1,.2-1.4,0-.4.3-.8.6-1.2.3-.3.6-.6,1-.8s.9-.3,1.3-.3,1.1.2,1.5.5c.2,0,.3.3.4.4s.2.2.2.4h0v-1.1h2.2c0,.3,0,.6,0,.9h-1v5.5c0,.6,0,1.2-.2,1.7,0,.4-.4.8-.7,1.1s-.7.5-1.1.6c-.5,0-.9.2-1.4.2s-.6,0-.9,0c-.3,0-.5,0-.8-.2-.2,0-.4,0-.6-.2,0,0-.3,0-.4-.2l.3-1ZM44,54.8c.2,0,.4,0,.6,0,.2,0,.5-.2.7-.4s.4-.5.5-.8c.2-.4.2-.9.2-1.4s0-.6,0-.9c0-.3,0-.6-.3-.9,0-.3-.3-.5-.6-.7s-.6-.3-1-.3-.8,0-1.1.3-.5.4-.6.7-.2.6-.3.9c0,.3,0,.5,0,.8s0,.8,0,1.1.2.6.4.9l.6.6c.5.1.7.2,1,.2h0Z"/>
    <line id="line65" class="cls-1" x1="2.4" y1="40.5" x2="83.5" y2="40.5"/>
  </g>
</svg>